<!-- Generator: Adobe Illustrator 19.0.0, SVG Export Plug-In  -->
<svg version="1.1" xmlns="http://www.w3.org/2000/svg" xmlns:xlink="http://www.w3.org/1999/xlink" xmlns:a="http://ns.adobe.com/AdobeSVGViewerExtensions/3.0/" x="0px" y="0px" width="241.6px" height="259.2px" viewBox="0 0 241.6 259.2" style="enable-background:new 0 0 241.6 259.2;" xml:space="preserve">
    <style type="text/css">
	.st0{fill:#E6C722;}
</style>
    <defs></defs>
    <path id="XMLID_17_" class="st0" d="M76.4,53.1c4-4.9,8-9.8,12.8-15.6c5.6,5,10.4,9.3,17.5,15.6c-1.5-7-1.3-12-3.5-15.3
	c-6.3-9.6-2.3-16.3,4.5-23.2c4.3-4.3,8.1-9.1,12.9-14.6c7.1,8.6,16.4,15.4,19,24.2c2.3,7.7-3.1,17.6-5.6,29
	c7-6.1,11.8-10.3,17.5-15.4c4.7,5.4,8.8,10.2,13.6,15.8c-23.6,14.1-33.2,34.9-31.9,60.8c0.3,6.5,1.8,13,3.5,19.3
	c2.7,10,6.7,20,17.9,22.4c12.6,2.7,23.6-2.1,32.3-11.6c22.2-24.1,24-65.9,4.3-95c-2.5-3.7-5.2-7.4-8.5-11.9
	c35.7,15.2,64,74.2,58.2,112.2c-10.2,67.1-62.8,106.8-113.4,109.2c-57.3,2.7-108.6-35-123.7-90.7C-9.6,119.2,14.4,60,53.6,39.4
	C48.5,53.2,40.1,69,37,85.8c-4.1,22.1,2.4,43.1,18.2,60c17.9,19.1,40.2,14.1,48.4-10.4C114.1,103.7,106.2,79.2,76.4,53.1z" />
</svg>